<svg width="94" height="94" viewBox="0 0 94 94" fill="none" xmlns="http://www.w3.org/2000/svg">
<path d="M47 90.0833C70.7943 90.0833 90.0834 70.7942 90.0834 46.9999C90.0834 23.2057 70.7943 3.91663 47 3.91663C23.2058 3.91663 3.91669 23.2057 3.91669 46.9999C3.91669 70.7942 23.2058 90.0833 47 90.0833Z" fill="#FC1370"/>
<path d="M63.0583 30.55V21.15H53.5714L52.6188 22.0356L48.1139 30.4721L46.698 31.3334H30.55V44.2584H39.4588L40.2112 45.3033L30.55 63.667V73.2417H40.1666L41.1195 72.2402L45.6244 63.6658L47.0407 62.6667H63.0583V49.7417H54.2795L53.4934 48.77L63.0885 30.5312" fill="white"/>
<path opacity="0.1" d="M16.5354 77.4646C24.3319 85.2612 35.1028 90.0834 47 90.0834C70.7942 90.0834 90.0834 70.7942 90.0834 47C90.0834 35.1028 85.2612 24.3319 77.4646 16.5354L16.5354 77.4646Z" fill="#231F20"/>
</svg>
