<svg width="308" height="94" viewBox="0 0 308 94" fill="none" xmlns="http://www.w3.org/2000/svg">
<path d="M204.074 45.7119C205.754 46.2439 207.07 47.1399 208.022 48.3999C208.974 49.6319 209.45 51.1579 209.45 52.9779C209.45 55.5539 208.442 57.5419 206.426 58.9419C204.438 60.3139 201.526 60.9999 197.69 60.9999H182.486V31.5999H196.85C200.434 31.5999 203.178 32.2859 205.082 33.6579C207.014 35.0299 207.98 36.8919 207.98 39.2439C207.98 40.6719 207.63 41.9459 206.93 43.0659C206.258 44.1859 205.306 45.0679 204.074 45.7119ZM189.248 36.7239V43.6539H196.01C197.69 43.6539 198.964 43.3599 199.832 42.7719C200.7 42.1839 201.134 41.3159 201.134 40.1679C201.134 39.0199 200.7 38.1659 199.832 37.6059C198.964 37.0179 197.69 36.7239 196.01 36.7239H189.248ZM197.186 55.8759C198.978 55.8759 200.322 55.5819 201.218 54.9939C202.142 54.4059 202.604 53.4959 202.604 52.2639C202.604 49.8279 200.798 48.6099 197.186 48.6099H189.248V55.8759H197.186Z" fill="#333333"/>
<path d="M224.891 61.3359C222.511 61.3359 220.369 60.8459 218.465 59.8659C216.589 58.8579 215.119 57.4719 214.055 55.7079C212.991 53.9439 212.459 51.9419 212.459 49.7019C212.459 47.4619 212.991 45.4599 214.055 43.6959C215.119 41.9319 216.589 40.5599 218.465 39.5799C220.369 38.5719 222.511 38.0679 224.891 38.0679C227.271 38.0679 229.399 38.5719 231.275 39.5799C233.151 40.5599 234.621 41.9319 235.685 43.6959C236.749 45.4599 237.281 47.4619 237.281 49.7019C237.281 51.9419 236.749 53.9439 235.685 55.7079C234.621 57.4719 233.151 58.8579 231.275 59.8659C229.399 60.8459 227.271 61.3359 224.891 61.3359ZM224.891 55.9599C226.571 55.9599 227.943 55.3999 229.007 54.2799C230.099 53.1319 230.645 51.6059 230.645 49.7019C230.645 47.7979 230.099 46.2859 229.007 45.1659C227.943 44.0179 226.571 43.4439 224.891 43.4439C223.211 43.4439 221.825 44.0179 220.733 45.1659C219.641 46.2859 219.095 47.7979 219.095 49.7019C219.095 51.6059 219.641 53.1319 220.733 54.2799C221.825 55.3999 223.211 55.9599 224.891 55.9599Z" fill="#333333"/>
<path d="M250.406 38.0679C253.906 38.0679 256.594 38.9079 258.47 40.5879C260.346 42.2399 261.284 44.7459 261.284 48.1059V60.9999H255.152V58.1859C253.92 60.2859 251.624 61.3359 248.264 61.3359C246.528 61.3359 245.016 61.0419 243.728 60.4539C242.468 59.8659 241.502 59.0539 240.83 58.0179C240.158 56.9819 239.822 55.8059 239.822 54.4899C239.822 52.3899 240.606 50.7379 242.174 49.5339C243.77 48.3299 246.22 47.7279 249.524 47.7279H254.732C254.732 46.2999 254.298 45.2079 253.43 44.4519C252.562 43.6679 251.26 43.2759 249.524 43.2759C248.32 43.2759 247.13 43.4719 245.954 43.8639C244.806 44.2279 243.826 44.7319 243.014 45.3759L240.662 40.7979C241.894 39.9299 243.364 39.2579 245.072 38.7819C246.808 38.3059 248.586 38.0679 250.406 38.0679ZM249.902 56.9259C251.022 56.9259 252.016 56.6739 252.884 56.1699C253.752 55.6379 254.368 54.8679 254.732 53.8599V51.5499H250.238C247.55 51.5499 246.206 52.4319 246.206 54.1959C246.206 55.0359 246.528 55.7079 247.172 56.2119C247.844 56.6879 248.754 56.9259 249.902 56.9259Z" fill="#333333"/>
<path d="M273.471 41.3859C274.255 40.2939 275.305 39.4679 276.621 38.9079C277.965 38.3479 279.505 38.0679 281.241 38.0679V44.1159C280.513 44.0599 280.023 44.0319 279.771 44.0319C277.895 44.0319 276.425 44.5639 275.361 45.6279C274.297 46.6639 273.765 48.2319 273.765 50.3319V60.9999H267.213V38.4039H273.471V41.3859Z" fill="#333333"/>
<path d="M307.948 29.8359V60.9999H301.69V58.3959C300.066 60.3559 297.714 61.3359 294.634 61.3359C292.506 61.3359 290.574 60.8599 288.838 59.9079C287.13 58.9559 285.786 57.5979 284.806 55.8339C283.826 54.0699 283.336 52.0259 283.336 49.7019C283.336 47.3779 283.826 45.3339 284.806 43.5699C285.786 41.8059 287.13 40.4479 288.838 39.4959C290.574 38.5439 292.506 38.0679 294.634 38.0679C297.518 38.0679 299.772 38.9779 301.396 40.7979V29.8359H307.948ZM295.768 55.9599C297.42 55.9599 298.792 55.3999 299.884 54.2799C300.976 53.1319 301.522 51.6059 301.522 49.7019C301.522 47.7979 300.976 46.2859 299.884 45.1659C298.792 44.0179 297.42 43.4439 295.768 43.4439C294.088 43.4439 292.702 44.0179 291.61 45.1659C290.518 46.2859 289.972 47.7979 289.972 49.7019C289.972 51.6059 290.518 53.1319 291.61 54.2799C292.702 55.3999 294.088 55.9599 295.768 55.9599Z" fill="#333333"/>
<path d="M146.716 49.492C146.716 50.4675 146.815 51.4087 147.013 52.314H146.35H134.417L146.436 38.3421L146.678 38.0609V37.69V31.6V30.6H145.678H119.764H118.764V31.6V39.286V40.286H119.764H130.605L118.586 54.2578L118.344 54.539V54.91V61V62H119.344H146.35H147.35V61V53.5388C147.654 54.4527 148.068 55.3263 148.592 56.1575C149.847 58.1471 151.617 59.6947 153.868 60.8048L153.868 60.8048L153.877 60.8095C156.136 61.8935 158.724 62.42 161.618 62.42C166.252 62.42 169.908 61.1328 172.396 58.3967L173.035 57.6941L172.366 57.0199L168.1 52.718H173.252H174.191L174.25 51.7804C174.332 50.463 174.378 49.6729 174.378 49.492C174.378 46.8442 173.767 44.5092 172.501 42.5313C171.28 40.579 169.61 39.0951 167.512 38.0911C165.46 37.0956 163.195 36.606 160.736 36.606C158.132 36.606 155.748 37.1398 153.606 38.2261L153.601 38.2287C151.486 39.3164 149.796 40.8515 148.55 42.8265L148.548 42.83C147.32 44.7946 146.716 47.0254 146.716 49.492ZM159.25 52.718H164.898C164.613 52.8746 164.344 52.9967 164.093 53.0871L164.093 53.087L164.081 53.0916C163.557 53.2883 162.845 53.406 161.912 53.406C160.866 53.406 160.072 53.2077 159.48 52.8722C159.4 52.8234 159.323 52.772 159.25 52.718ZM162.6 45.6686L162.609 45.6769L162.619 45.6849C162.776 45.8148 162.918 45.9652 163.042 46.14H158.572C158.704 45.9448 158.854 45.7808 159.021 45.6429C159.456 45.2838 160.03 45.074 160.82 45.074C161.597 45.074 162.165 45.2901 162.6 45.6686Z" stroke="#333333" stroke-width="2"/>
<path d="M47 90.0833C70.7943 90.0833 90.0834 70.7942 90.0834 46.9999C90.0834 23.2057 70.7943 3.91663 47 3.91663C23.2058 3.91663 3.91669 23.2057 3.91669 46.9999C3.91669 70.7942 23.2058 90.0833 47 90.0833Z" fill="#FC1370"/>
<path d="M63.0583 30.55V21.15H53.5714L52.6188 22.0356L48.1139 30.4721L46.698 31.3334H30.55V44.2584H39.4588L40.2112 45.3033L30.55 63.667V73.2417H40.1666L41.1195 72.2402L45.6244 63.6658L47.0407 62.6667H63.0583V49.7417H54.2795L53.4934 48.77L63.0885 30.5312" fill="white"/>
<path opacity="0.1" d="M16.5354 77.4646C24.3319 85.2612 35.1028 90.0834 47 90.0834C70.7942 90.0834 90.0834 70.7942 90.0834 47C90.0834 35.1028 85.2612 24.3319 77.4646 16.5354L16.5354 77.4646Z" fill="#231F20"/>
</svg>
